<?xml version="1.0" encoding="utf-8" standalone="no"?>
<!DOCTYPE svg PUBLIC "-//W3C//DTD SVG 1.1//EN"
  "http://www.w3.org/Graphics/SVG/1.1/DTD/svg11.dtd">
<svg xmlns:xlink="http://www.w3.org/1999/xlink" width="504pt" height="324pt" viewBox="0 0 504 324" xmlns="http://www.w3.org/2000/svg" version="1.1">
 <metadata>
  <rdf:RDF xmlns:dc="http://purl.org/dc/elements/1.1/" xmlns:cc="http://creativecommons.org/ns#" xmlns:rdf="http://www.w3.org/1999/02/22-rdf-syntax-ns#">
   <cc:Work>
    <dc:type rdf:resource="http://purl.org/dc/dcmitype/StillImage"/>
    <dc:date>2026-09-23T16:05:43.974628</dc:date>
    <dc:format>image/svg+xml</dc:format>
    <dc:creator>
     <cc:Agent>
      <dc:title>Matplotlib v3.11.2, https://matplotlib.org/</dc:title>
     </cc:Agent>
    </dc:creator>
   </cc:Work>
  </rdf:RDF>
 </metadata>
 <defs>
  <style type="text/css">*{stroke-linejoin: round; stroke-linecap: butt}</style>
 </defs>
 <g id="figure_1">
  <g id="patch_1">
   <path d="M 0 324 
L 504 324 
L 504 0 
L 0 0 
z
" style="fill: #ffffff"/>
  </g>
  <g id="axes_1">
   <g id="patch_2">
    <path d="M 60.922344 295.877656 
L 493.2 295.877656 
L 493.2 26.16 
L 60.922344 26.16 
z
" style="fill: #ffffff"/>
   </g>
   <g id="FillBetweenPolyCollection_1">
    <defs>
     <path id="mb4b7fc0fe4" d="M 361.382523 -40.382237 
L 192.73982 -40.382237 
L 189.180341 -42.858983 
L 185.713057 -45.33573 
L 182.355452 -47.812476 
L 179.124074 -50.289222 
L 176.03429 -52.765968 
L 173.100043 -55.242714 
L 170.333617 -57.71946 
L 167.745421 -60.196206 
L 165.343775 -62.672953 
L 163.134727 -65.149699 
L 161.121893 -67.626445 
L 159.306322 -70.103191 
L 157.6864 -72.579937 
L 156.257787 -75.056683 
L 155.013401 -77.53343 
L 153.943444 -80.010176 
L 153.035473 -82.486922 
L 152.274523 -84.963668 
L 151.643281 -87.440414 
L 151.122301 -89.91716 
L 150.690273 -92.393906 
L 150.324329 -94.870653 
L 150.000396 -97.347399 
L 149.693574 -99.824145 
L 149.378544 -102.300891 
L 149.030001 -104.777637 
L 148.62309 -107.254383 
L 148.133849 -109.73113 
L 147.539652 -112.207876 
L 146.819625 -114.684622 
L 145.955051 -117.161368 
L 144.929735 -119.638114 
L 143.730336 -122.11486 
L 142.346647 -124.591606 
L 140.771825 -127.068353 
L 139.002569 -129.545099 
L 137.039226 -132.021845 
L 134.885844 -134.498591 
L 132.550156 -136.975337 
L 130.043499 -139.452083 
L 127.380669 -141.92883 
L 124.579718 -144.405576 
L 121.661696 -146.882322 
L 118.650329 -149.359068 
L 115.57167 -151.835814 
L 112.453693 -154.31256 
L 109.325864 -156.789306 
L 106.218688 -159.266053 
L 103.163238 -161.742799 
L 100.19068 -164.219545 
L 97.331798 -166.696291 
L 94.616534 -169.173037 
L 92.073546 -171.649783 
L 89.729794 -174.12653 
L 87.610161 -176.603276 
L 85.737122 -179.080022 
L 84.130453 -181.556768 
L 82.806998 -184.033514 
L 81.780493 -186.51026 
L 81.061447 -188.987006 
L 80.657081 -191.463753 
L 80.571328 -193.940499 
L 80.804894 -196.417245 
L 81.355364 -198.893991 
L 82.217369 -201.370737 
L 83.382794 -203.847483 
L 84.841022 -206.32423 
L 86.579218 -208.800976 
L 88.582632 -211.277722 
L 90.834931 -213.754468 
L 93.318527 -216.231214 
L 96.014925 -218.70796 
L 98.905053 -221.184707 
L 101.969595 -223.661453 
L 105.1893 -226.138199 
L 108.545269 -228.614945 
L 112.019218 -231.091691 
L 115.593712 -233.568437 
L 119.252356 -236.045183 
L 122.979962 -238.52193 
L 126.762668 -240.998676 
L 130.58802 -243.475422 
L 134.445021 -245.952168 
L 138.32413 -248.428914 
L 142.217241 -250.90566 
L 146.117612 -253.382407 
L 150.019772 -255.859153 
L 153.919399 -258.335899 
L 157.813177 -260.812645 
L 161.698626 -263.289391 
L 165.573933 -265.766137 
L 169.437757 -268.242883 
L 173.289052 -270.71963 
L 177.126873 -273.196376 
L 180.950203 -275.673122 
L 184.757793 -278.149868 
L 188.548009 -280.626614 
L 192.318717 -283.10336 
L 196.067182 -285.580107 
L 358.055162 -285.580107 
L 358.055162 -285.580107 
L 361.803627 -283.10336 
L 365.574335 -280.626614 
L 369.364551 -278.149868 
L 373.17214 -275.673122 
L 376.995471 -273.196376 
L 380.833292 -270.71963 
L 384.684586 -268.242883 
L 388.548411 -265.766137 
L 392.423717 -263.289391 
L 396.309167 -260.812645 
L 400.202945 -258.335899 
L 404.102572 -255.859153 
L 408.004732 -253.382407 
L 411.905102 -250.90566 
L 415.798214 -248.428914 
L 419.677323 -245.952168 
L 423.534324 -243.475422 
L 427.359676 -240.998676 
L 431.142382 -238.52193 
L 434.869988 -236.045183 
L 438.528632 -233.568437 
L 442.103125 -231.091691 
L 445.577075 -228.614945 
L 448.933044 -226.138199 
L 452.152749 -223.661453 
L 455.217291 -221.184707 
L 458.107419 -218.70796 
L 460.803816 -216.231214 
L 463.287413 -213.754468 
L 465.539711 -211.277722 
L 467.543126 -208.800976 
L 469.281322 -206.32423 
L 470.73955 -203.847483 
L 471.904974 -201.370737 
L 472.76698 -198.893991 
L 473.31745 -196.417245 
L 473.551016 -193.940499 
L 473.465263 -191.463753 
L 473.060897 -188.987006 
L 472.341851 -186.51026 
L 471.315346 -184.033514 
L 469.991891 -181.556768 
L 468.385221 -179.080022 
L 466.512182 -176.603276 
L 464.39255 -174.12653 
L 462.048797 -171.649783 
L 459.50581 -169.173037 
L 456.790546 -166.696291 
L 453.931664 -164.219545 
L 450.959106 -161.742799 
L 447.903656 -159.266053 
L 444.79648 -156.789306 
L 441.668651 -154.31256 
L 438.550674 -151.835814 
L 435.472015 -149.359068 
L 432.460648 -146.882322 
L 429.542625 -144.405576 
L 426.741675 -141.92883 
L 424.078845 -139.452083 
L 421.572188 -136.975337 
L 419.2365 -134.498591 
L 417.083118 -132.021845 
L 415.119775 -129.545099 
L 413.350518 -127.068353 
L 411.775697 -124.591606 
L 410.392007 -122.11486 
L 409.192608 -119.638114 
L 408.167293 -117.161368 
L 407.302719 -114.684622 
L 406.582692 -112.207876 
L 405.988494 -109.73113 
L 405.499254 -107.254383 
L 405.092342 -104.777637 
L 404.743799 -102.300891 
L 404.42877 -99.824145 
L 404.121947 -97.347399 
L 403.798015 -94.870653 
L 403.432071 -92.393906 
L 403.000042 -89.91716 
L 402.479062 -87.440414 
L 401.84782 -84.963668 
L 401.086871 -82.486922 
L 400.1789 -80.010176 
L 399.108943 -77.53343 
L 397.864557 -75.056683 
L 396.435944 -72.579937 
L 394.816022 -70.103191 
L 393.000451 -67.626445 
L 390.987617 -65.149699 
L 388.778569 -62.672953 
L 386.376922 -60.196206 
L 383.788726 -57.71946 
L 381.022301 -55.242714 
L 378.088053 -52.765968 
L 374.998269 -50.289222 
L 371.766892 -47.812476 
L 368.409287 -45.33573 
L 364.942003 -42.858983 
L 361.382523 -40.382237 
z
" style="stroke: #1f2937; stroke-opacity: 0.8"/>
    </defs>
    <g clip-path="url(#pa57a37117f)">
     <use xlink:href="#mb4b7fc0fe4" x="0" y="324" style="fill: #9ecae1; fill-opacity: 0.8; stroke: #1f2937; stroke-opacity: 0.8"/>
    </g>
   </g>
   <g id="matplotlib.axis_1">
    <g id="xtick_1">
     <g id="line2d_1">
      <defs>
       <path id="m688ac5cf7e" d="M 0 0 
L 0 3.5 
" style="stroke: #000000; stroke-width: 0.8"/>
      </defs>
      <g>
       <use xlink:href="#m688ac5cf7e" x="277.061172" y="295.877656" style="stroke: #000000; stroke-width: 0.8"/>
      </g>
     </g>
     <g id="text_1">
      <!-- sample -->
      <g transform="translate(258.882266 310.476094) scale(0.1 -0.1)">
       <defs>
        <path id="DejaVuSans-56" d="M 2834 3397 
L 2834 2853 
Q 2591 2978 2328 3040 
Q 2066 3103 1784 3103 
Q 1356 3103 1142 2972 
Q 928 2841 928 2578 
Q 928 2378 1081 2264 
Q 1234 2150 1697 2047 
L 1894 2003 
Q 2506 1872 2764 1633 
Q 3022 1394 3022 966 
Q 3022 478 2636 193 
Q 2250 -91 1575 -91 
Q 1294 -91 989 -36 
Q 684 19 347 128 
L 347 722 
Q 666 556 975 473 
Q 1284 391 1588 391 
Q 1994 391 2212 530 
Q 2431 669 2431 922 
Q 2431 1156 2273 1281 
Q 2116 1406 1581 1522 
L 1381 1569 
Q 847 1681 609 1914 
Q 372 2147 372 2553 
Q 372 3047 722 3315 
Q 1072 3584 1716 3584 
Q 2034 3584 2315 3537 
Q 2597 3491 2834 3397 
z
" transform="scale(0.015625)"/>
        <path id="DejaVuSans-44" d="M 2194 1759 
Q 1497 1759 1228 1600 
Q 959 1441 959 1056 
Q 959 750 1161 570 
Q 1363 391 1709 391 
Q 2188 391 2477 730 
Q 2766 1069 2766 1631 
L 2766 1759 
L 2194 1759 
z
M 3341 1997 
L 3341 0 
L 2766 0 
L 2766 531 
Q 2569 213 2275 61 
Q 1981 -91 1556 -91 
Q 1019 -91 701 211 
Q 384 513 384 1019 
Q 384 1609 779 1909 
Q 1175 2209 1959 2209 
L 2766 2209 
L 2766 2266 
Q 2766 2663 2505 2880 
Q 2244 3097 1772 3097 
Q 1472 3097 1187 3025 
Q 903 2953 641 2809 
L 641 3341 
Q 956 3463 1253 3523 
Q 1550 3584 1831 3584 
Q 2591 3584 2966 3190 
Q 3341 2797 3341 1997 
z
" transform="scale(0.015625)"/>
        <path id="DejaVuSans-50" d="M 3328 2828 
Q 3544 3216 3844 3400 
Q 4144 3584 4550 3584 
Q 5097 3584 5394 3201 
Q 5691 2819 5691 2113 
L 5691 0 
L 5113 0 
L 5113 2094 
Q 5113 2597 4934 2840 
Q 4756 3084 4391 3084 
Q 3944 3084 3684 2787 
Q 3425 2491 3425 1978 
L 3425 0 
L 2847 0 
L 2847 2094 
Q 2847 2600 2669 2842 
Q 2491 3084 2119 3084 
Q 1678 3084 1418 2786 
Q 1159 2488 1159 1978 
L 1159 0 
L 581 0 
L 581 3500 
L 1159 3500 
L 1159 2956 
Q 1356 3278 1631 3431 
Q 1906 3584 2284 3584 
Q 2666 3584 2933 3390 
Q 3200 3197 3328 2828 
z
" transform="scale(0.015625)"/>
        <path id="DejaVuSans-53" d="M 1159 525 
L 1159 -1331 
L 581 -1331 
L 581 3500 
L 1159 3500 
L 1159 2969 
Q 1341 3281 1617 3432 
Q 1894 3584 2278 3584 
Q 2916 3584 3314 3078 
Q 3713 2572 3713 1747 
Q 3713 922 3314 415 
Q 2916 -91 2278 -91 
Q 1894 -91 1617 61 
Q 1341 213 1159 525 
z
M 3116 1747 
Q 3116 2381 2855 2742 
Q 2594 3103 2138 3103 
Q 1681 3103 1420 2742 
Q 1159 2381 1159 1747 
Q 1159 1113 1420 752 
Q 1681 391 2138 391 
Q 2594 391 2855 752 
Q 3116 1113 3116 1747 
z
" transform="scale(0.015625)"/>
        <path id="DejaVuSans-4f" d="M 603 4863 
L 1178 4863 
L 1178 0 
L 603 0 
L 603 4863 
z
" transform="scale(0.015625)"/>
        <path id="DejaVuSans-48" d="M 3597 1894 
L 3597 1613 
L 953 1613 
Q 991 1019 1311 708 
Q 1631 397 2203 397 
Q 2534 397 2845 478 
Q 3156 559 3463 722 
L 3463 178 
Q 3153 47 2828 -22 
Q 2503 -91 2169 -91 
Q 1331 -91 842 396 
Q 353 884 353 1716 
Q 353 2575 817 3079 
Q 1281 3584 2069 3584 
Q 2775 3584 3186 3129 
Q 3597 2675 3597 1894 
z
M 3022 2063 
Q 3016 2534 2758 2815 
Q 2500 3097 2075 3097 
Q 1594 3097 1305 2825 
Q 1016 2553 972 2059 
L 3022 2063 
z
" transform="scale(0.015625)"/>
       </defs>
       <use xlink:href="#DejaVuSans-56"/>
       <use xlink:href="#DejaVuSans-44" transform="translate(52.09375 0)"/>
       <use xlink:href="#DejaVuSans-50" transform="translate(113.375 0)"/>
       <use xlink:href="#DejaVuSans-53" transform="translate(210.78125 0)"/>
       <use xlink:href="#DejaVuSans-4f" transform="translate(274.265625 0)"/>
       <use xlink:href="#DejaVuSans-48" transform="translate(302.046875 0)"/>
      </g>
     </g>
    </g>
   </g>
   <g id="matplotlib.axis_2">
    <g id="ytick_1">
     <g id="line2d_2">
      <defs>
       <path id="m07d0c554af" d="M 0 0 
L -3.5 0 
" style="stroke: #000000; stroke-width: 0.8"/>
      </defs>
      <g>
       <use xlink:href="#m07d0c554af" x="60.922344" y="281.165784" style="stroke: #000000; stroke-width: 0.8"/>
      </g>
     </g>
     <g id="text_2">
      <!-- 0.915 -->
      <g transform="translate(25.294219 284.964612) scale(0.1 -0.1)">
       <defs>
        <path id="DejaVuSans-13" d="M 2034 4250 
Q 1547 4250 1301 3770 
Q 1056 3291 1056 2328 
Q 1056 1369 1301 889 
Q 1547 409 2034 409 
Q 2525 409 2770 889 
Q 3016 1369 3016 2328 
Q 3016 3291 2770 3770 
Q 2525 4250 2034 4250 
z
M 2034 4750 
Q 2819 4750 3233 4129 
Q 3647 3509 3647 2328 
Q 3647 1150 3233 529 
Q 2819 -91 2034 -91 
Q 1250 -91 836 529 
Q 422 1150 422 2328 
Q 422 3509 836 4129 
Q 1250 4750 2034 4750 
z
" transform="scale(0.015625)"/>
        <path id="DejaVuSans-11" d="M 684 794 
L 1344 794 
L 1344 0 
L 684 0 
L 684 794 
z
" transform="scale(0.015625)"/>
        <path id="DejaVuSans-1c" d="M 703 97 
L 703 672 
Q 941 559 1184 500 
Q 1428 441 1663 441 
Q 2288 441 2617 861 
Q 2947 1281 2994 2138 
Q 2813 1869 2534 1725 
Q 2256 1581 1919 1581 
Q 1219 1581 811 2004 
Q 403 2428 403 3163 
Q 403 3881 828 4315 
Q 1253 4750 1959 4750 
Q 2769 4750 3195 4129 
Q 3622 3509 3622 2328 
Q 3622 1225 3098 567 
Q 2575 -91 1691 -91 
Q 1453 -91 1209 -44 
Q 966 3 703 97 
z
M 1959 2075 
Q 2384 2075 2632 2365 
Q 2881 2656 2881 3163 
Q 2881 3666 2632 3958 
Q 2384 4250 1959 4250 
Q 1534 4250 1286 3958 
Q 1038 3666 1038 3163 
Q 1038 2656 1286 2365 
Q 1534 2075 1959 2075 
z
" transform="scale(0.015625)"/>
        <path id="DejaVuSans-14" d="M 794 531 
L 1825 531 
L 1825 4091 
L 703 3866 
L 703 4441 
L 1819 4666 
L 2450 4666 
L 2450 531 
L 3481 531 
L 3481 0 
L 794 0 
L 794 531 
z
" transform="scale(0.015625)"/>
        <path id="DejaVuSans-18" d="M 691 4666 
L 3169 4666 
L 3169 4134 
L 1269 4134 
L 1269 2991 
Q 1406 3038 1543 3061 
Q 1681 3084 1819 3084 
Q 2600 3084 3056 2656 
Q 3513 2228 3513 1497 
Q 3513 744 3044 326 
Q 2575 -91 1722 -91 
Q 1428 -91 1123 -41 
Q 819 9 494 109 
L 494 744 
Q 775 591 1075 516 
Q 1375 441 1709 441 
Q 2250 441 2565 725 
Q 2881 1009 2881 1497 
Q 2881 1984 2565 2268 
Q 2250 2553 1709 2553 
Q 1456 2553 1204 2497 
Q 953 2441 691 2322 
L 691 4666 
z
" transform="scale(0.015625)"/>
       </defs>
       <use xlink:href="#DejaVuSans-13"/>
       <use xlink:href="#DejaVuSans-11" transform="translate(63.625 0)"/>
       <use xlink:href="#DejaVuSans-1c" transform="translate(95.40625 0)"/>
       <use xlink:href="#DejaVuSans-14" transform="translate(159.03125 0)"/>
       <use xlink:href="#DejaVuSans-18" transform="translate(222.65625 0)"/>
      </g>
     </g>
    </g>
    <g id="ytick_2">
     <g id="line2d_3">
      <g>
       <use xlink:href="#m07d0c554af" x="60.922344" y="247.655409" style="stroke: #000000; stroke-width: 0.8"/>
      </g>
     </g>
     <g id="text_3">
      <!-- 0.920 -->
      <g transform="translate(25.294219 251.454237) scale(0.1 -0.1)">
       <defs>
        <path id="DejaVuSans-15" d="M 1228 531 
L 3431 531 
L 3431 0 
L 469 0 
L 469 531 
Q 828 903 1448 1529 
Q 2069 2156 2228 2338 
Q 2531 2678 2651 2914 
Q 2772 3150 2772 3378 
Q 2772 3750 2511 3984 
Q 2250 4219 1831 4219 
Q 1534 4219 1204 4116 
Q 875 4013 500 3803 
L 500 4441 
Q 881 4594 1212 4672 
Q 1544 4750 1819 4750 
Q 2544 4750 2975 4387 
Q 3406 4025 3406 3419 
Q 3406 3131 3298 2873 
Q 3191 2616 2906 2266 
Q 2828 2175 2409 1742 
Q 1991 1309 1228 531 
z
" transform="scale(0.015625)"/>
       </defs>
       <use xlink:href="#DejaVuSans-13"/>
       <use xlink:href="#DejaVuSans-11" transform="translate(63.625 0)"/>
       <use xlink:href="#DejaVuSans-1c" transform="translate(95.40625 0)"/>
       <use xlink:href="#DejaVuSans-15" transform="translate(159.03125 0)"/>
       <use xlink:href="#DejaVuSans-13" transform="translate(222.65625 0)"/>
      </g>
     </g>
    </g>
    <g id="ytick_3">
     <g id="line2d_4">
      <g>
       <use xlink:href="#m07d0c554af" x="60.922344" y="214.145033" style="stroke: #000000; stroke-width: 0.8"/>
      </g>
     </g>
     <g id="text_4">
      <!-- 0.925 -->
      <g transform="translate(25.294219 217.943861) scale(0.1 -0.1)">
       <use xlink:href="#DejaVuSans-13"/>
       <use xlink:href="#DejaVuSans-11" transform="translate(63.625 0)"/>
       <use xlink:href="#DejaVuSans-1c" transform="translate(95.40625 0)"/>
       <use xlink:href="#DejaVuSans-15" transform="translate(159.03125 0)"/>
       <use xlink:href="#DejaVuSans-18" transform="translate(222.65625 0)"/>
      </g>
     </g>
    </g>
    <g id="ytick_4">
     <g id="line2d_5">
      <g>
       <use xlink:href="#m07d0c554af" x="60.922344" y="180.634658" style="stroke: #000000; stroke-width: 0.8"/>
      </g>
     </g>
     <g id="text_5">
      <!-- 0.930 -->
      <g transform="translate(25.294219 184.433486) scale(0.1 -0.1)">
       <defs>
        <path id="DejaVuSans-16" d="M 2597 2516 
Q 3050 2419 3304 2112 
Q 3559 1806 3559 1356 
Q 3559 666 3084 287 
Q 2609 -91 1734 -91 
Q 1441 -91 1130 -33 
Q 819 25 488 141 
L 488 750 
Q 750 597 1062 519 
Q 1375 441 1716 441 
Q 2309 441 2620 675 
Q 2931 909 2931 1356 
Q 2931 1769 2642 2001 
Q 2353 2234 1838 2234 
L 1294 2234 
L 1294 2753 
L 1863 2753 
Q 2328 2753 2575 2939 
Q 2822 3125 2822 3475 
Q 2822 3834 2567 4026 
Q 2313 4219 1838 4219 
Q 1578 4219 1281 4162 
Q 984 4106 628 3988 
L 628 4550 
Q 988 4650 1302 4700 
Q 1616 4750 1894 4750 
Q 2613 4750 3031 4423 
Q 3450 4097 3450 3541 
Q 3450 3153 3228 2886 
Q 3006 2619 2597 2516 
z
" transform="scale(0.015625)"/>
       </defs>
       <use xlink:href="#DejaVuSans-13"/>
       <use xlink:href="#DejaVuSans-11" transform="translate(63.625 0)"/>
       <use xlink:href="#DejaVuSans-1c" transform="translate(95.40625 0)"/>
       <use xlink:href="#DejaVuSans-16" transform="translate(159.03125 0)"/>
       <use xlink:href="#DejaVuSans-13" transform="translate(222.65625 0)"/>
      </g>
     </g>
    </g>
    <g id="ytick_5">
     <g id="line2d_6">
      <g>
       <use xlink:href="#m07d0c554af" x="60.922344" y="147.124282" style="stroke: #000000; stroke-width: 0.8"/>
      </g>
     </g>
     <g id="text_6">
      <!-- 0.935 -->
      <g transform="translate(25.294219 150.92311) scale(0.1 -0.1)">
       <use xlink:href="#DejaVuSans-13"/>
       <use xlink:href="#DejaVuSans-11" transform="translate(63.625 0)"/>
       <use xlink:href="#DejaVuSans-1c" transform="translate(95.40625 0)"/>
       <use xlink:href="#DejaVuSans-16" transform="translate(159.03125 0)"/>
       <use xlink:href="#DejaVuSans-18" transform="translate(222.65625 0)"/>
      </g>
     </g>
    </g>
    <g id="ytick_6">
     <g id="line2d_7">
      <g>
       <use xlink:href="#m07d0c554af" x="60.922344" y="113.613907" style="stroke: #000000; stroke-width: 0.8"/>
      </g>
     </g>
     <g id="text_7">
      <!-- 0.940 -->
      <g transform="translate(25.294219 117.412735) scale(0.1 -0.1)">
       <defs>
        <path id="DejaVuSans-17" d="M 2419 4116 
L 825 1625 
L 2419 1625 
L 2419 4116 
z
M 2253 4666 
L 3047 4666 
L 3047 1625 
L 3713 1625 
L 3713 1100 
L 3047 1100 
L 3047 0 
L 2419 0 
L 2419 1100 
L 313 1100 
L 313 1709 
L 2253 4666 
z
" transform="scale(0.015625)"/>
       </defs>
       <use xlink:href="#DejaVuSans-13"/>
       <use xlink:href="#DejaVuSans-11" transform="translate(63.625 0)"/>
       <use xlink:href="#DejaVuSans-1c" transform="translate(95.40625 0)"/>
       <use xlink:href="#DejaVuSans-17" transform="translate(159.03125 0)"/>
       <use xlink:href="#DejaVuSans-13" transform="translate(222.65625 0)"/>
      </g>
     </g>
    </g>
    <g id="ytick_7">
     <g id="line2d_8">
      <g>
       <use xlink:href="#m07d0c554af" x="60.922344" y="80.103531" style="stroke: #000000; stroke-width: 0.8"/>
      </g>
     </g>
     <g id="text_8">
      <!-- 0.945 -->
      <g transform="translate(25.294219 83.902359) scale(0.1 -0.1)">
       <use xlink:href="#DejaVuSans-13"/>
       <use xlink:href="#DejaVuSans-11" transform="translate(63.625 0)"/>
       <use xlink:href="#DejaVuSans-1c" transform="translate(95.40625 0)"/>
       <use xlink:href="#DejaVuSans-17" transform="translate(159.03125 0)"/>
       <use xlink:href="#DejaVuSans-18" transform="translate(222.65625 0)"/>
      </g>
     </g>
    </g>
    <g id="ytick_8">
     <g id="line2d_9">
      <g>
       <use xlink:href="#m07d0c554af" x="60.922344" y="46.593156" style="stroke: #000000; stroke-width: 0.8"/>
      </g>
     </g>
     <g id="text_9">
      <!-- 0.950 -->
      <g transform="translate(25.294219 50.391984) scale(0.1 -0.1)">
       <use xlink:href="#DejaVuSans-13"/>
       <use xlink:href="#DejaVuSans-11" transform="translate(63.625 0)"/>
       <use xlink:href="#DejaVuSans-1c" transform="translate(95.40625 0)"/>
       <use xlink:href="#DejaVuSans-18" transform="translate(159.03125 0)"/>
       <use xlink:href="#DejaVuSans-13" transform="translate(222.65625 0)"/>
      </g>
     </g>
    </g>
    <g id="text_10">
     <!-- theta -->
     <g transform="translate(18.891875 174.248516) rotate(-90) scale(0.1 -0.1)">
      <defs>
       <path id="DejaVuSans-57" d="M 1172 4494 
L 1172 3500 
L 2356 3500 
L 2356 3053 
L 1172 3053 
L 1172 1153 
Q 1172 725 1289 603 
Q 1406 481 1766 481 
L 2356 481 
L 2356 0 
L 1766 0 
Q 1100 0 847 248 
Q 594 497 594 1153 
L 594 3053 
L 172 3053 
L 172 3500 
L 594 3500 
L 594 4494 
L 1172 4494 
z
" transform="scale(0.015625)"/>
       <path id="DejaVuSans-4b" d="M 3513 2113 
L 3513 0 
L 2938 0 
L 2938 2094 
Q 2938 2591 2744 2837 
Q 2550 3084 2163 3084 
Q 1697 3084 1428 2787 
Q 1159 2491 1159 1978 
L 1159 0 
L 581 0 
L 581 4863 
L 1159 4863 
L 1159 2956 
Q 1366 3272 1645 3428 
Q 1925 3584 2291 3584 
Q 2894 3584 3203 3211 
Q 3513 2838 3513 2113 
z
" transform="scale(0.015625)"/>
      </defs>
      <use xlink:href="#DejaVuSans-57"/>
      <use xlink:href="#DejaVuSans-4b" transform="translate(39.203125 0)"/>
      <use xlink:href="#DejaVuSans-48" transform="translate(102.578125 0)"/>
      <use xlink:href="#DejaVuSans-57" transform="translate(164.109375 0)"/>
      <use xlink:href="#DejaVuSans-44" transform="translate(203.3125 0)"/>
     </g>
    </g>
   </g>
   <g id="LineCollection_1">
    <path d="M 178.81625 157.303095 
L 375.306094 157.303095 
" clip-path="url(#pa57a37117f)" style="fill: none; stroke: #1f77b4; stroke-width: 1.5"/>
   </g>
   <g id="LineCollection_2">
    <path d="M 178.81625 38.419893 
L 375.306094 38.419893 
" clip-path="url(#pa57a37117f)" style="fill: none; stroke: #1f77b4; stroke-width: 1.5"/>
   </g>
   <g id="LineCollection_3">
    <path d="M 178.81625 283.617763 
L 375.306094 283.617763 
" clip-path="url(#pa57a37117f)" style="fill: none; stroke: #1f77b4; stroke-width: 1.5"/>
   </g>
   <g id="LineCollection_4">
    <path d="M 277.061172 283.617763 
L 277.061172 38.419893 
" clip-path="url(#pa57a37117f)" style="fill: none; stroke: #1f77b4; stroke-width: 1.5"/>
   </g>
   <g id="LineCollection_5">
    <path d="M 178.81625 143.273154 
L 375.306094 143.273154 
" clip-path="url(#pa57a37117f)" style="fill: none; stroke: #1f77b4; stroke-width: 1.5"/>
   </g>
   <g id="patch_3">
    <path d="M 60.922344 295.877656 
L 60.922344 26.16 
" style="fill: none; stroke: #000000; stroke-width: 0.8; stroke-linejoin: miter; stroke-linecap: square"/>
   </g>
   <g id="patch_4">
    <path d="M 493.2 295.877656 
L 493.2 26.16 
" style="fill: none; stroke: #000000; stroke-width: 0.8; stroke-linejoin: miter; stroke-linecap: square"/>
   </g>
   <g id="patch_5">
    <path d="M 60.922344 295.877656 
L 493.2 295.877656 
" style="fill: none; stroke: #000000; stroke-width: 0.8; stroke-linejoin: miter; stroke-linecap: square"/>
   </g>
   <g id="patch_6">
    <path d="M 60.922344 26.16 
L 493.2 26.16 
" style="fill: none; stroke: #000000; stroke-width: 0.8; stroke-linejoin: miter; stroke-linecap: square"/>
   </g>
   <g id="text_11">
    <!-- Theta distribution for Gemini -->
    <g transform="translate(190.389297 20.16) scale(0.12 -0.12)">
     <defs>
      <path id="DejaVuSans-37" d="M -19 4666 
L 3928 4666 
L 3928 4134 
L 2272 4134 
L 2272 0 
L 1638 0 
L 1638 4134 
L -19 4134 
L -19 4666 
z
" transform="scale(0.015625)"/>
      <path id="DejaVuSans-3" transform="scale(0.015625)"/>
      <path id="DejaVuSans-47" d="M 2906 2969 
L 2906 4863 
L 3481 4863 
L 3481 0 
L 2906 0 
L 2906 525 
Q 2725 213 2448 61 
Q 2172 -91 1784 -91 
Q 1150 -91 751 415 
Q 353 922 353 1747 
Q 353 2572 751 3078 
Q 1150 3584 1784 3584 
Q 2172 3584 2448 3432 
Q 2725 3281 2906 2969 
z
M 947 1747 
Q 947 1113 1208 752 
Q 1469 391 1925 391 
Q 2381 391 2643 752 
Q 2906 1113 2906 1747 
Q 2906 2381 2643 2742 
Q 2381 3103 1925 3103 
Q 1469 3103 1208 2742 
Q 947 2381 947 1747 
z
" transform="scale(0.015625)"/>
      <path id="DejaVuSans-4c" d="M 603 3500 
L 1178 3500 
L 1178 0 
L 603 0 
L 603 3500 
z
M 603 4863 
L 1178 4863 
L 1178 4134 
L 603 4134 
L 603 4863 
z
" transform="scale(0.015625)"/>
      <path id="DejaVuSans-55" d="M 2631 2963 
Q 2534 3019 2420 3045 
Q 2306 3072 2169 3072 
Q 1681 3072 1420 2755 
Q 1159 2438 1159 1844 
L 1159 0 
L 581 0 
L 581 3500 
L 1159 3500 
L 1159 2956 
Q 1341 3275 1631 3429 
Q 1922 3584 2338 3584 
Q 2397 3584 2469 3576 
Q 2541 3569 2628 3553 
L 2631 2963 
z
" transform="scale(0.015625)"/>
      <path id="DejaVuSans-45" d="M 3116 1747 
Q 3116 2381 2855 2742 
Q 2594 3103 2138 3103 
Q 1681 3103 1420 2742 
Q 1159 2381 1159 1747 
Q 1159 1113 1420 752 
Q 1681 391 2138 391 
Q 2594 391 2855 752 
Q 3116 1113 3116 1747 
z
M 1159 2969 
Q 1341 3281 1617 3432 
Q 1894 3584 2278 3584 
Q 2916 3584 3314 3078 
Q 3713 2572 3713 1747 
Q 3713 922 3314 415 
Q 2916 -91 2278 -91 
Q 1894 -91 1617 61 
Q 1341 213 1159 525 
L 1159 0 
L 581 0 
L 581 4863 
L 1159 4863 
L 1159 2969 
z
" transform="scale(0.015625)"/>
      <path id="DejaVuSans-58" d="M 544 1381 
L 544 3500 
L 1119 3500 
L 1119 1403 
Q 1119 906 1312 657 
Q 1506 409 1894 409 
Q 2359 409 2629 706 
Q 2900 1003 2900 1516 
L 2900 3500 
L 3475 3500 
L 3475 0 
L 2900 0 
L 2900 538 
Q 2691 219 2414 64 
Q 2138 -91 1772 -91 
Q 1169 -91 856 284 
Q 544 659 544 1381 
z
M 1991 3584 
L 1991 3584 
z
" transform="scale(0.015625)"/>
      <path id="DejaVuSans-52" d="M 1959 3097 
Q 1497 3097 1228 2736 
Q 959 2375 959 1747 
Q 959 1119 1226 758 
Q 1494 397 1959 397 
Q 2419 397 2687 759 
Q 2956 1122 2956 1747 
Q 2956 2369 2687 2733 
Q 2419 3097 1959 3097 
z
M 1959 3584 
Q 2709 3584 3137 3096 
Q 3566 2609 3566 1747 
Q 3566 888 3137 398 
Q 2709 -91 1959 -91 
Q 1206 -91 779 398 
Q 353 888 353 1747 
Q 353 2609 779 3096 
Q 1206 3584 1959 3584 
z
" transform="scale(0.015625)"/>
      <path id="DejaVuSans-51" d="M 3513 2113 
L 3513 0 
L 2938 0 
L 2938 2094 
Q 2938 2591 2744 2837 
Q 2550 3084 2163 3084 
Q 1697 3084 1428 2787 
Q 1159 2491 1159 1978 
L 1159 0 
L 581 0 
L 581 3500 
L 1159 3500 
L 1159 2956 
Q 1366 3272 1645 3428 
Q 1925 3584 2291 3584 
Q 2894 3584 3203 3211 
Q 3513 2838 3513 2113 
z
" transform="scale(0.015625)"/>
      <path id="DejaVuSans-49" d="M 2375 4863 
L 2375 4384 
L 1825 4384 
Q 1516 4384 1395 4259 
Q 1275 4134 1275 3809 
L 1275 3500 
L 2222 3500 
L 2222 3053 
L 1275 3053 
L 1275 0 
L 697 0 
L 697 3053 
L 147 3053 
L 147 3500 
L 697 3500 
L 697 3744 
Q 697 4328 969 4595 
Q 1241 4863 1831 4863 
L 2375 4863 
z
" transform="scale(0.015625)"/>
      <path id="DejaVuSans-2a" d="M 3809 666 
L 3809 1919 
L 2778 1919 
L 2778 2438 
L 4434 2438 
L 4434 434 
Q 4069 175 3628 42 
Q 3188 -91 2688 -91 
Q 1594 -91 976 548 
Q 359 1188 359 2328 
Q 359 3472 976 4111 
Q 1594 4750 2688 4750 
Q 3144 4750 3555 4637 
Q 3966 4525 4313 4306 
L 4313 3634 
Q 3963 3931 3569 4081 
Q 3175 4231 2741 4231 
Q 1884 4231 1454 3753 
Q 1025 3275 1025 2328 
Q 1025 1384 1454 906 
Q 1884 428 2741 428 
Q 3075 428 3337 486 
Q 3600 544 3809 666 
z
" transform="scale(0.015625)"/>
     </defs>
     <use xlink:href="#DejaVuSans-37"/>
     <use xlink:href="#DejaVuSans-4b" transform="translate(61.078125 0)"/>
     <use xlink:href="#DejaVuSans-48" transform="translate(124.453125 0)"/>
     <use xlink:href="#DejaVuSans-57" transform="translate(185.984375 0)"/>
     <use xlink:href="#DejaVuSans-44" transform="translate(225.1875 0)"/>
     <use xlink:href="#DejaVuSans-3" transform="translate(286.46875 0)"/>
     <use xlink:href="#DejaVuSans-47" transform="translate(318.25 0)"/>
     <use xlink:href="#DejaVuSans-4c" transform="translate(381.734375 0)"/>
     <use xlink:href="#DejaVuSans-56" transform="translate(409.515625 0)"/>
     <use xlink:href="#DejaVuSans-57" transform="translate(461.609375 0)"/>
     <use xlink:href="#DejaVuSans-55" transform="translate(500.8125 0)"/>
     <use xlink:href="#DejaVuSans-4c" transform="translate(541.921875 0)"/>
     <use xlink:href="#DejaVuSans-45" transform="translate(569.703125 0)"/>
     <use xlink:href="#DejaVuSans-58" transform="translate(633.1875 0)"/>
     <use xlink:href="#DejaVuSans-57" transform="translate(696.5625 0)"/>
     <use xlink:href="#DejaVuSans-4c" transform="translate(735.765625 0)"/>
     <use xlink:href="#DejaVuSans-52" transform="translate(763.546875 0)"/>
     <use xlink:href="#DejaVuSans-51" transform="translate(824.734375 0)"/>
     <use xlink:href="#DejaVuSans-3" transform="translate(888.109375 0)"/>
     <use xlink:href="#DejaVuSans-49" transform="translate(919.890625 0)"/>
     <use xlink:href="#DejaVuSans-52" transform="translate(955.09375 0)"/>
     <use xlink:href="#DejaVuSans-55" transform="translate(1016.28125 0)"/>
     <use xlink:href="#DejaVuSans-3" transform="translate(1057.390625 0)"/>
     <use xlink:href="#DejaVuSans-2a" transform="translate(1089.171875 0)"/>
     <use xlink:href="#DejaVuSans-48" transform="translate(1166.65625 0)"/>
     <use xlink:href="#DejaVuSans-50" transform="translate(1228.1875 0)"/>
     <use xlink:href="#DejaVuSans-4c" transform="translate(1325.59375 0)"/>
     <use xlink:href="#DejaVuSans-51" transform="translate(1353.375 0)"/>
     <use xlink:href="#DejaVuSans-4c" transform="translate(1416.75 0)"/>
    </g>
   </g>
  </g>
 </g>
 <defs>
  <clipPath id="pa57a37117f">
   <rect x="60.922344" y="26.16" width="432.277656" height="269.717656"/>
  </clipPath>
 </defs>
</svg>
