<?xml version="1.0" encoding="utf-8" standalone="no"?>
<!DOCTYPE svg PUBLIC "-//W3C//DTD SVG 1.1//EN"
  "http://www.w3.org/Graphics/SVG/1.1/DTD/svg11.dtd">
<svg xmlns:xlink="http://www.w3.org/1999/xlink" width="504pt" height="324pt" viewBox="0 0 504 324" xmlns="http://www.w3.org/2000/svg" version="1.1">
 <metadata>
  <rdf:RDF xmlns:dc="http://purl.org/dc/elements/1.1/" xmlns:cc="http://creativecommons.org/ns#" xmlns:rdf="http://www.w3.org/1999/02/22-rdf-syntax-ns#">
   <cc:Work>
    <dc:type rdf:resource="http://purl.org/dc/dcmitype/StillImage"/>
    <dc:date>2026-09-02T19:09:45.152417</dc:date>
    <dc:format>image/svg+xml</dc:format>
    <dc:creator>
     <cc:Agent>
      <dc:title>Matplotlib v3.11.1, https://matplotlib.org/</dc:title>
     </cc:Agent>
    </dc:creator>
   </cc:Work>
  </rdf:RDF>
 </metadata>
 <defs>
  <style type="text/css">*{stroke-linejoin: round; stroke-linecap: butt}</style>
 </defs>
 <g id="figure_1">
  <g id="patch_1">
   <path d="M 0 324 
L 504 324 
L 504 0 
L 0 0 
z
" style="fill: #ffffff"/>
  </g>
  <g id="axes_1">
   <g id="patch_2">
    <path d="M 45.082344 281.877656 
L 482.666631 281.877656 
L 482.666631 26.16 
L 45.082344 26.16 
z
" style="fill: #ffffff"/>
   </g>
   <g id="FillBetweenPolyCollection_1">
    <defs>
     <path id="md615a342b2" d="M 64.972539 -53.745874 
L 64.972539 -66.41298 
L 66.971553 -67.245383 
L 68.970568 -68.104597 
L 70.969582 -68.989439 
L 72.968597 -69.898603 
L 74.967611 -70.830673 
L 76.966626 -71.784134 
L 78.965641 -72.757381 
L 80.964655 -73.74873 
L 82.96367 -74.756436 
L 84.962684 -75.778698 
L 86.961699 -76.813679 
L 88.960713 -77.859519 
L 90.959728 -78.914347 
L 92.958742 -79.976297 
L 94.957757 -81.043525 
L 96.956772 -82.114223 
L 98.955786 -83.186635 
L 100.954801 -84.259076 
L 102.953815 -85.329948 
L 104.95283 -86.397757 
L 106.951844 -87.461136 
L 108.950859 -88.518859 
L 110.949874 -89.569864 
L 112.948888 -90.61327 
L 114.947903 -91.648404 
L 116.946917 -92.674812 
L 118.945932 -93.692286 
L 120.944946 -94.700882 
L 122.943961 -95.700933 
L 124.942975 -96.693074 
L 126.94199 -97.678247 
L 128.941005 -98.657722 
L 130.940019 -99.633098 
L 132.939034 -100.606312 
L 134.938048 -101.57964 
L 136.937063 -102.55569 
L 138.936077 -103.537398 
L 140.935092 -104.528011 
L 142.934106 -105.531067 
L 144.933121 -106.550374 
L 146.932136 -107.589973 
L 148.93115 -108.654112 
L 150.930165 -109.747195 
L 152.929179 -110.873746 
L 154.928194 -112.038355 
L 156.927208 -113.245632 
L 158.926223 -114.500147 
L 160.925238 -115.806381 
L 162.924252 -117.168673 
L 164.923267 -118.59116 
L 166.922281 -120.077736 
L 168.921296 -121.631997 
L 170.92031 -123.257202 
L 172.919325 -124.956238 
L 174.918339 -126.731586 
L 176.917354 -128.5853 
L 178.916369 -130.518989 
L 180.915383 -132.533812 
L 182.914398 -134.630475 
L 184.913412 -136.809243 
L 186.912427 -139.069952 
L 188.911441 -141.412035 
L 190.910456 -143.834547 
L 192.90947 -146.336206 
L 194.908485 -148.915421 
L 196.9075 -151.570346 
L 198.906514 -154.29891 
L 200.905529 -157.098867 
L 202.904543 -159.967836 
L 204.903558 -162.903335 
L 206.902572 -165.902815 
L 208.901587 -168.96369 
L 210.900602 -172.083354 
L 212.899616 -175.259191 
L 214.898631 -178.488585 
L 216.897645 -181.768903 
L 218.89666 -185.097491 
L 220.895674 -188.471638 
L 222.894689 -191.888549 
L 224.893703 -195.345299 
L 226.892718 -198.838783 
L 228.891733 -202.365661 
L 230.890747 -205.922293 
L 232.889762 -209.504679 
L 234.888776 -213.108394 
L 236.887791 -216.728518 
L 238.886805 -220.35958 
L 240.88582 -223.995498 
L 242.884834 -227.62953 
L 244.883849 -231.254232 
L 246.882864 -234.861431 
L 248.881878 -238.442205 
L 250.880893 -241.986877 
L 252.879907 -245.48503 
L 254.878922 -248.925531 
L 256.877936 -252.296576 
L 258.876951 -255.585746 
L 260.875966 -258.780085 
L 262.87498 -261.866189 
L 264.873995 -264.830312 
L 266.873009 -267.658484 
L 268.872024 -270.33664 
L 270.871038 -272.850759 
L 272.870053 -275.187011 
L 274.869067 -277.331911 
L 276.868082 -279.272465 
L 278.867097 -280.996334 
L 280.866111 -282.491978 
L 282.865126 -283.748801 
L 284.86414 -284.757292 
L 286.863155 -285.509149 
L 288.862169 -285.997394 
L 290.861184 -286.21647 
L 292.860199 -286.162327 
L 294.859213 -285.832483 
L 296.858228 -285.22607 
L 298.857242 -284.34386 
L 300.856257 -283.18827 
L 302.855271 -281.763347 
L 304.854286 -280.074731 
L 306.8533 -278.129603 
L 308.852315 -275.936609 
L 310.85133 -273.505774 
L 312.850344 -270.848395 
L 314.849359 -267.976923 
L 316.848373 -264.904831 
L 318.847388 -261.646481 
L 320.846402 -258.216969 
L 322.845417 -254.631982 
L 324.844431 -250.90764 
L 326.843446 -247.060346 
L 328.842461 -243.106631 
L 330.841475 -239.063007 
L 332.84049 -234.945831 
L 334.839504 -230.771164 
L 336.838519 -226.554649 
L 338.837533 -222.311398 
L 340.836548 -218.055888 
L 342.835563 -213.801869 
L 344.834577 -209.562287 
L 346.833592 -205.349215 
L 348.832606 -201.173808 
L 350.831621 -197.046253 
L 352.830635 -192.975751 
L 354.82965 -188.970495 
L 356.828664 -185.03767 
L 358.827679 -181.183455 
L 360.826694 -177.413045 
L 362.825708 -173.73067 
L 364.824723 -170.139631 
L 366.823737 -166.642338 
L 368.822752 -163.240358 
L 370.821766 -159.934462 
L 372.820781 -156.724681 
L 374.819795 -153.610365 
L 376.81881 -150.590241 
L 378.817825 -147.662475 
L 380.816839 -144.824736 
L 382.815854 -142.074259 
L 384.814868 -139.407908 
L 386.813883 -136.822235 
L 388.812897 -134.313549 
L 390.811912 -131.877965 
L 392.810927 -129.511473 
L 394.809941 -127.209984 
L 396.808956 -124.969389 
L 398.80797 -122.785607 
L 400.806985 -120.654635 
L 402.805999 -118.572585 
L 404.805014 -116.535734 
L 406.804028 -114.540553 
L 408.803043 -112.583744 
L 410.802058 -110.662265 
L 412.801072 -108.77336 
L 414.800087 -106.914573 
L 416.799101 -105.083766 
L 418.798116 -103.279131 
L 420.79713 -101.499194 
L 422.796145 -99.742817 
L 424.795159 -98.009197 
L 426.794174 -96.297857 
L 428.793189 -94.608634 
L 430.792203 -92.941667 
L 432.791218 -91.297372 
L 434.790232 -89.676427 
L 436.789247 -88.079739 
L 438.788261 -86.508421 
L 440.787276 -84.963762 
L 442.786291 -83.447193 
L 444.785305 -81.960256 
L 446.78432 -80.504571 
L 448.783334 -79.0818 
L 450.782349 -77.693622 
L 452.781363 -76.341691 
L 454.780378 -75.027614 
L 456.779392 -73.752922 
L 458.778407 -72.519037 
L 460.777422 -71.327259 
L 462.776436 -70.178736 
L 462.776436 -53.745874 
L 462.776436 -53.745874 
L 460.777422 -53.745874 
L 458.778407 -53.745874 
L 456.779392 -53.745874 
L 454.780378 -53.745874 
L 452.781363 -53.745874 
L 450.782349 -53.745874 
L 448.783334 -53.745874 
L 446.78432 -53.745874 
L 444.785305 -53.745874 
L 442.786291 -53.745874 
L 440.787276 -53.745874 
L 438.788261 -53.745874 
L 436.789247 -53.745874 
L 434.790232 -53.745874 
L 432.791218 -53.745874 
L 430.792203 -53.745874 
L 428.793189 -53.745874 
L 426.794174 -53.745874 
L 424.795159 -53.745874 
L 422.796145 -53.745874 
L 420.79713 -53.745874 
L 418.798116 -53.745874 
L 416.799101 -53.745874 
L 414.800087 -53.745874 
L 412.801072 -53.745874 
L 410.802058 -53.745874 
L 408.803043 -53.745874 
L 406.804028 -53.745874 
L 404.805014 -53.745874 
L 402.805999 -53.745874 
L 400.806985 -53.745874 
L 398.80797 -53.745874 
L 396.808956 -53.745874 
L 394.809941 -53.745874 
L 392.810927 -53.745874 
L 390.811912 -53.745874 
L 388.812897 -53.745874 
L 386.813883 -53.745874 
L 384.814868 -53.745874 
L 382.815854 -53.745874 
L 380.816839 -53.745874 
L 378.817825 -53.745874 
L 376.81881 -53.745874 
L 374.819795 -53.745874 
L 372.820781 -53.745874 
L 370.821766 -53.745874 
L 368.822752 -53.745874 
L 366.823737 -53.745874 
L 364.824723 -53.745874 
L 362.825708 -53.745874 
L 360.826694 -53.745874 
L 358.827679 -53.745874 
L 356.828664 -53.745874 
L 354.82965 -53.745874 
L 352.830635 -53.745874 
L 350.831621 -53.745874 
L 348.832606 -53.745874 
L 346.833592 -53.745874 
L 344.834577 -53.745874 
L 342.835563 -53.745874 
L 340.836548 -53.745874 
L 338.837533 -53.745874 
L 336.838519 -53.745874 
L 334.839504 -53.745874 
L 332.84049 -53.745874 
L 330.841475 -53.745874 
L 328.842461 -53.745874 
L 326.843446 -53.745874 
L 324.844431 -53.745874 
L 322.845417 -53.745874 
L 320.846402 -53.745874 
L 318.847388 -53.745874 
L 316.848373 -53.745874 
L 314.849359 -53.745874 
L 312.850344 -53.745874 
L 310.85133 -53.745874 
L 308.852315 -53.745874 
L 306.8533 -53.745874 
L 304.854286 -53.745874 
L 302.855271 -53.745874 
L 300.856257 -53.745874 
L 298.857242 -53.745874 
L 296.858228 -53.745874 
L 294.859213 -53.745874 
L 292.860199 -53.745874 
L 290.861184 -53.745874 
L 288.862169 -53.745874 
L 286.863155 -53.745874 
L 284.86414 -53.745874 
L 282.865126 -53.745874 
L 280.866111 -53.745874 
L 278.867097 -53.745874 
L 276.868082 -53.745874 
L 274.869067 -53.745874 
L 272.870053 -53.745874 
L 270.871038 -53.745874 
L 268.872024 -53.745874 
L 266.873009 -53.745874 
L 264.873995 -53.745874 
L 262.87498 -53.745874 
L 260.875966 -53.745874 
L 258.876951 -53.745874 
L 256.877936 -53.745874 
L 254.878922 -53.745874 
L 252.879907 -53.745874 
L 250.880893 -53.745874 
L 248.881878 -53.745874 
L 246.882864 -53.745874 
L 244.883849 -53.745874 
L 242.884834 -53.745874 
L 240.88582 -53.745874 
L 238.886805 -53.745874 
L 236.887791 -53.745874 
L 234.888776 -53.745874 
L 232.889762 -53.745874 
L 230.890747 -53.745874 
L 228.891733 -53.745874 
L 226.892718 -53.745874 
L 224.893703 -53.745874 
L 222.894689 -53.745874 
L 220.895674 -53.745874 
L 218.89666 -53.745874 
L 216.897645 -53.745874 
L 214.898631 -53.745874 
L 212.899616 -53.745874 
L 210.900602 -53.745874 
L 208.901587 -53.745874 
L 206.902572 -53.745874 
L 204.903558 -53.745874 
L 202.904543 -53.745874 
L 200.905529 -53.745874 
L 198.906514 -53.745874 
L 196.9075 -53.745874 
L 194.908485 -53.745874 
L 192.90947 -53.745874 
L 190.910456 -53.745874 
L 188.911441 -53.745874 
L 186.912427 -53.745874 
L 184.913412 -53.745874 
L 182.914398 -53.745874 
L 180.915383 -53.745874 
L 178.916369 -53.745874 
L 176.917354 -53.745874 
L 174.918339 -53.745874 
L 172.919325 -53.745874 
L 170.92031 -53.745874 
L 168.921296 -53.745874 
L 166.922281 -53.745874 
L 164.923267 -53.745874 
L 162.924252 -53.745874 
L 160.925238 -53.745874 
L 158.926223 -53.745874 
L 156.927208 -53.745874 
L 154.928194 -53.745874 
L 152.929179 -53.745874 
L 150.930165 -53.745874 
L 148.93115 -53.745874 
L 146.932136 -53.745874 
L 144.933121 -53.745874 
L 142.934106 -53.745874 
L 140.935092 -53.745874 
L 138.936077 -53.745874 
L 136.937063 -53.745874 
L 134.938048 -53.745874 
L 132.939034 -53.745874 
L 130.940019 -53.745874 
L 128.941005 -53.745874 
L 126.94199 -53.745874 
L 124.942975 -53.745874 
L 122.943961 -53.745874 
L 120.944946 -53.745874 
L 118.945932 -53.745874 
L 116.946917 -53.745874 
L 114.947903 -53.745874 
L 112.948888 -53.745874 
L 110.949874 -53.745874 
L 108.950859 -53.745874 
L 106.951844 -53.745874 
L 104.95283 -53.745874 
L 102.953815 -53.745874 
L 100.954801 -53.745874 
L 98.955786 -53.745874 
L 96.956772 -53.745874 
L 94.957757 -53.745874 
L 92.958742 -53.745874 
L 90.959728 -53.745874 
L 88.960713 -53.745874 
L 86.961699 -53.745874 
L 84.962684 -53.745874 
L 82.96367 -53.745874 
L 80.964655 -53.745874 
L 78.965641 -53.745874 
L 76.966626 -53.745874 
L 74.967611 -53.745874 
L 72.968597 -53.745874 
L 70.969582 -53.745874 
L 68.970568 -53.745874 
L 66.971553 -53.745874 
L 64.972539 -53.745874 
z
" style="stroke: #9ecae1; stroke-opacity: 0.45"/>
    </defs>
    <g clip-path="url(#p076a2216cb)">
     <use xlink:href="#md615a342b2" x="0" y="324" style="fill: #9ecae1; fill-opacity: 0.45; stroke: #9ecae1; stroke-opacity: 0.45"/>
    </g>
   </g>
   <g id="matplotlib.axis_1">
    <g id="xtick_1">
     <g id="line2d_1">
      <defs>
       <path id="m6e8cb2c037" d="M 0 0 
L 0 3.5 
" style="stroke: #000000; stroke-width: 0.8"/>
      </defs>
      <g>
       <use xlink:href="#m6e8cb2c037" x="98.200864" y="281.877656" style="stroke: #000000; stroke-width: 0.8"/>
      </g>
     </g>
     <g id="text_1">
      <!-- 0.78 -->
      <g transform="translate(87.068052 296.475312) scale(0.1 -0.1)">
       <defs>
        <path id="DejaVuSans-13" d="M 2034 4250 
Q 1547 4250 1301 3770 
Q 1056 3291 1056 2328 
Q 1056 1369 1301 889 
Q 1547 409 2034 409 
Q 2525 409 2770 889 
Q 3016 1369 3016 2328 
Q 3016 3291 2770 3770 
Q 2525 4250 2034 4250 
z
M 2034 4750 
Q 2819 4750 3233 4129 
Q 3647 3509 3647 2328 
Q 3647 1150 3233 529 
Q 2819 -91 2034 -91 
Q 1250 -91 836 529 
Q 422 1150 422 2328 
Q 422 3509 836 4129 
Q 1250 4750 2034 4750 
z
" transform="scale(0.015625)"/>
        <path id="DejaVuSans-11" d="M 684 794 
L 1344 794 
L 1344 0 
L 684 0 
L 684 794 
z
" transform="scale(0.015625)"/>
        <path id="DejaVuSans-1a" d="M 525 4666 
L 3525 4666 
L 3525 4397 
L 1831 0 
L 1172 0 
L 2766 4134 
L 525 4134 
L 525 4666 
z
" transform="scale(0.015625)"/>
        <path id="DejaVuSans-1b" d="M 2034 2216 
Q 1584 2216 1326 1975 
Q 1069 1734 1069 1313 
Q 1069 891 1326 650 
Q 1584 409 2034 409 
Q 2484 409 2743 651 
Q 3003 894 3003 1313 
Q 3003 1734 2745 1975 
Q 2488 2216 2034 2216 
z
M 1403 2484 
Q 997 2584 770 2862 
Q 544 3141 544 3541 
Q 544 4100 942 4425 
Q 1341 4750 2034 4750 
Q 2731 4750 3128 4425 
Q 3525 4100 3525 3541 
Q 3525 3141 3298 2862 
Q 3072 2584 2669 2484 
Q 3125 2378 3379 2068 
Q 3634 1759 3634 1313 
Q 3634 634 3220 271 
Q 2806 -91 2034 -91 
Q 1263 -91 848 271 
Q 434 634 434 1313 
Q 434 1759 690 2068 
Q 947 2378 1403 2484 
z
M 1172 3481 
Q 1172 3119 1398 2916 
Q 1625 2713 2034 2713 
Q 2441 2713 2670 2916 
Q 2900 3119 2900 3481 
Q 2900 3844 2670 4047 
Q 2441 4250 2034 4250 
Q 1625 4250 1398 4047 
Q 1172 3844 1172 3481 
z
" transform="scale(0.015625)"/>
       </defs>
       <use xlink:href="#DejaVuSans-13"/>
       <use xlink:href="#DejaVuSans-11" transform="translate(63.625 0)"/>
       <use xlink:href="#DejaVuSans-1a" transform="translate(95.40625 0)"/>
       <use xlink:href="#DejaVuSans-1b" transform="translate(159.03125 0)"/>
      </g>
     </g>
    </g>
    <g id="xtick_2">
     <g id="line2d_2">
      <g>
       <use xlink:href="#m6e8cb2c037" x="174.953616" y="281.877656" style="stroke: #000000; stroke-width: 0.8"/>
      </g>
     </g>
     <g id="text_2">
      <!-- 0.80 -->
      <g transform="translate(163.820804 296.475312) scale(0.1 -0.1)">
       <use xlink:href="#DejaVuSans-13"/>
       <use xlink:href="#DejaVuSans-11" transform="translate(63.625 0)"/>
       <use xlink:href="#DejaVuSans-1b" transform="translate(95.40625 0)"/>
       <use xlink:href="#DejaVuSans-13" transform="translate(159.03125 0)"/>
      </g>
     </g>
    </g>
    <g id="xtick_3">
     <g id="line2d_3">
      <g>
       <use xlink:href="#m6e8cb2c037" x="251.706368" y="281.877656" style="stroke: #000000; stroke-width: 0.8"/>
      </g>
     </g>
     <g id="text_3">
      <!-- 0.82 -->
      <g transform="translate(240.573556 296.475312) scale(0.1 -0.1)">
       <defs>
        <path id="DejaVuSans-15" d="M 1228 531 
L 3431 531 
L 3431 0 
L 469 0 
L 469 531 
Q 828 903 1448 1529 
Q 2069 2156 2228 2338 
Q 2531 2678 2651 2914 
Q 2772 3150 2772 3378 
Q 2772 3750 2511 3984 
Q 2250 4219 1831 4219 
Q 1534 4219 1204 4116 
Q 875 4013 500 3803 
L 500 4441 
Q 881 4594 1212 4672 
Q 1544 4750 1819 4750 
Q 2544 4750 2975 4387 
Q 3406 4025 3406 3419 
Q 3406 3131 3298 2873 
Q 3191 2616 2906 2266 
Q 2828 2175 2409 1742 
Q 1991 1309 1228 531 
z
" transform="scale(0.015625)"/>
       </defs>
       <use xlink:href="#DejaVuSans-13"/>
       <use xlink:href="#DejaVuSans-11" transform="translate(63.625 0)"/>
       <use xlink:href="#DejaVuSans-1b" transform="translate(95.40625 0)"/>
       <use xlink:href="#DejaVuSans-15" transform="translate(159.03125 0)"/>
      </g>
     </g>
    </g>
    <g id="xtick_4">
     <g id="line2d_4">
      <g>
       <use xlink:href="#m6e8cb2c037" x="328.45912" y="281.877656" style="stroke: #000000; stroke-width: 0.8"/>
      </g>
     </g>
     <g id="text_4">
      <!-- 0.84 -->
      <g transform="translate(317.326308 296.475312) scale(0.1 -0.1)">
       <defs>
        <path id="DejaVuSans-17" d="M 2419 4116 
L 825 1625 
L 2419 1625 
L 2419 4116 
z
M 2253 4666 
L 3047 4666 
L 3047 1625 
L 3713 1625 
L 3713 1100 
L 3047 1100 
L 3047 0 
L 2419 0 
L 2419 1100 
L 313 1100 
L 313 1709 
L 2253 4666 
z
" transform="scale(0.015625)"/>
       </defs>
       <use xlink:href="#DejaVuSans-13"/>
       <use xlink:href="#DejaVuSans-11" transform="translate(63.625 0)"/>
       <use xlink:href="#DejaVuSans-1b" transform="translate(95.40625 0)"/>
       <use xlink:href="#DejaVuSans-17" transform="translate(159.03125 0)"/>
      </g>
     </g>
    </g>
    <g id="xtick_5">
     <g id="line2d_5">
      <g>
       <use xlink:href="#m6e8cb2c037" x="405.211872" y="281.877656" style="stroke: #000000; stroke-width: 0.8"/>
      </g>
     </g>
     <g id="text_5">
      <!-- 0.86 -->
      <g transform="translate(394.07906 296.475312) scale(0.1 -0.1)">
       <defs>
        <path id="DejaVuSans-19" d="M 2113 2584 
Q 1688 2584 1439 2293 
Q 1191 2003 1191 1497 
Q 1191 994 1439 701 
Q 1688 409 2113 409 
Q 2538 409 2786 701 
Q 3034 994 3034 1497 
Q 3034 2003 2786 2293 
Q 2538 2584 2113 2584 
z
M 3366 4563 
L 3366 3988 
Q 3128 4100 2886 4159 
Q 2644 4219 2406 4219 
Q 1781 4219 1451 3797 
Q 1122 3375 1075 2522 
Q 1259 2794 1537 2939 
Q 1816 3084 2150 3084 
Q 2853 3084 3261 2657 
Q 3669 2231 3669 1497 
Q 3669 778 3244 343 
Q 2819 -91 2113 -91 
Q 1303 -91 875 529 
Q 447 1150 447 2328 
Q 447 3434 972 4092 
Q 1497 4750 2381 4750 
Q 2619 4750 2861 4703 
Q 3103 4656 3366 4563 
z
" transform="scale(0.015625)"/>
       </defs>
       <use xlink:href="#DejaVuSans-13"/>
       <use xlink:href="#DejaVuSans-11" transform="translate(63.625 0)"/>
       <use xlink:href="#DejaVuSans-1b" transform="translate(95.40625 0)"/>
       <use xlink:href="#DejaVuSans-19" transform="translate(159.03125 0)"/>
      </g>
     </g>
    </g>
    <g id="xtick_6">
     <g id="line2d_6">
      <g>
       <use xlink:href="#m6e8cb2c037" x="481.964624" y="281.877656" style="stroke: #000000; stroke-width: 0.8"/>
      </g>
     </g>
     <g id="text_6">
      <!-- 0.88 -->
      <g transform="translate(470.831812 296.475312) scale(0.1 -0.1)">
       <use xlink:href="#DejaVuSans-13"/>
       <use xlink:href="#DejaVuSans-11" transform="translate(63.625 0)"/>
       <use xlink:href="#DejaVuSans-1b" transform="translate(95.40625 0)"/>
       <use xlink:href="#DejaVuSans-1b" transform="translate(159.03125 0)"/>
      </g>
     </g>
    </g>
    <g id="text_7">
     <!-- theta -->
     <g transform="translate(250.6448 310.476094) scale(0.1 -0.1)">
      <defs>
       <path id="DejaVuSans-57" d="M 1172 4494 
L 1172 3500 
L 2356 3500 
L 2356 3053 
L 1172 3053 
L 1172 1153 
Q 1172 725 1289 603 
Q 1406 481 1766 481 
L 2356 481 
L 2356 0 
L 1766 0 
Q 1100 0 847 248 
Q 594 497 594 1153 
L 594 3053 
L 172 3053 
L 172 3500 
L 594 3500 
L 594 4494 
L 1172 4494 
z
" transform="scale(0.015625)"/>
       <path id="DejaVuSans-4b" d="M 3513 2113 
L 3513 0 
L 2938 0 
L 2938 2094 
Q 2938 2591 2744 2837 
Q 2550 3084 2163 3084 
Q 1697 3084 1428 2787 
Q 1159 2491 1159 1978 
L 1159 0 
L 581 0 
L 581 4863 
L 1159 4863 
L 1159 2956 
Q 1366 3272 1645 3428 
Q 1925 3584 2291 3584 
Q 2894 3584 3203 3211 
Q 3513 2838 3513 2113 
z
" transform="scale(0.015625)"/>
       <path id="DejaVuSans-48" d="M 3597 1894 
L 3597 1613 
L 953 1613 
Q 991 1019 1311 708 
Q 1631 397 2203 397 
Q 2534 397 2845 478 
Q 3156 559 3463 722 
L 3463 178 
Q 3153 47 2828 -22 
Q 2503 -91 2169 -91 
Q 1331 -91 842 396 
Q 353 884 353 1716 
Q 353 2575 817 3079 
Q 1281 3584 2069 3584 
Q 2775 3584 3186 3129 
Q 3597 2675 3597 1894 
z
M 3022 2063 
Q 3016 2534 2758 2815 
Q 2500 3097 2075 3097 
Q 1594 3097 1305 2825 
Q 1016 2553 972 2059 
L 3022 2063 
z
" transform="scale(0.015625)"/>
       <path id="DejaVuSans-44" d="M 2194 1759 
Q 1497 1759 1228 1600 
Q 959 1441 959 1056 
Q 959 750 1161 570 
Q 1363 391 1709 391 
Q 2188 391 2477 730 
Q 2766 1069 2766 1631 
L 2766 1759 
L 2194 1759 
z
M 3341 1997 
L 3341 0 
L 2766 0 
L 2766 531 
Q 2569 213 2275 61 
Q 1981 -91 1556 -91 
Q 1019 -91 701 211 
Q 384 513 384 1019 
Q 384 1609 779 1909 
Q 1175 2209 1959 2209 
L 2766 2209 
L 2766 2266 
Q 2766 2663 2505 2880 
Q 2244 3097 1772 3097 
Q 1472 3097 1187 3025 
Q 903 2953 641 2809 
L 641 3341 
Q 956 3463 1253 3523 
Q 1550 3584 1831 3584 
Q 2591 3584 2966 3190 
Q 3341 2797 3341 1997 
z
" transform="scale(0.015625)"/>
      </defs>
      <use xlink:href="#DejaVuSans-57"/>
      <use xlink:href="#DejaVuSans-4b" transform="translate(39.203125 0)"/>
      <use xlink:href="#DejaVuSans-48" transform="translate(102.578125 0)"/>
      <use xlink:href="#DejaVuSans-57" transform="translate(164.109375 0)"/>
      <use xlink:href="#DejaVuSans-44" transform="translate(203.3125 0)"/>
     </g>
    </g>
   </g>
   <g id="matplotlib.axis_2">
    <g id="ytick_1">
     <g id="line2d_7">
      <defs>
       <path id="mfb4169092f" d="M 0 0 
L -3.5 0 
" style="stroke: #000000; stroke-width: 0.8"/>
      </defs>
      <g>
       <use xlink:href="#mfb4169092f" x="45.082344" y="270.254126" style="stroke: #000000; stroke-width: 0.8"/>
      </g>
     </g>
     <g id="text_8">
      <!-- 0 -->
      <g transform="translate(31.719844 274.052955) scale(0.1 -0.1)">
       <use xlink:href="#DejaVuSans-13"/>
      </g>
     </g>
    </g>
    <g id="ytick_2">
     <g id="line2d_8">
      <g>
       <use xlink:href="#mfb4169092f" x="45.082344" y="214.715694" style="stroke: #000000; stroke-width: 0.8"/>
      </g>
     </g>
     <g id="text_9">
      <!-- 5 -->
      <g transform="translate(31.719844 218.514522) scale(0.1 -0.1)">
       <defs>
        <path id="DejaVuSans-18" d="M 691 4666 
L 3169 4666 
L 3169 4134 
L 1269 4134 
L 1269 2991 
Q 1406 3038 1543 3061 
Q 1681 3084 1819 3084 
Q 2600 3084 3056 2656 
Q 3513 2228 3513 1497 
Q 3513 744 3044 326 
Q 2575 -91 1722 -91 
Q 1428 -91 1123 -41 
Q 819 9 494 109 
L 494 744 
Q 775 591 1075 516 
Q 1375 441 1709 441 
Q 2250 441 2565 725 
Q 2881 1009 2881 1497 
Q 2881 1984 2565 2268 
Q 2250 2553 1709 2553 
Q 1456 2553 1204 2497 
Q 953 2441 691 2322 
L 691 4666 
z
" transform="scale(0.015625)"/>
       </defs>
       <use xlink:href="#DejaVuSans-18"/>
      </g>
     </g>
    </g>
    <g id="ytick_3">
     <g id="line2d_9">
      <g>
       <use xlink:href="#mfb4169092f" x="45.082344" y="159.177261" style="stroke: #000000; stroke-width: 0.8"/>
      </g>
     </g>
     <g id="text_10">
      <!-- 10 -->
      <g transform="translate(25.357344 162.976089) scale(0.1 -0.1)">
       <defs>
        <path id="DejaVuSans-14" d="M 794 531 
L 1825 531 
L 1825 4091 
L 703 3866 
L 703 4441 
L 1819 4666 
L 2450 4666 
L 2450 531 
L 3481 531 
L 3481 0 
L 794 0 
L 794 531 
z
" transform="scale(0.015625)"/>
       </defs>
       <use xlink:href="#DejaVuSans-14"/>
       <use xlink:href="#DejaVuSans-13" transform="translate(63.625 0)"/>
      </g>
     </g>
    </g>
    <g id="ytick_4">
     <g id="line2d_10">
      <g>
       <use xlink:href="#mfb4169092f" x="45.082344" y="103.638829" style="stroke: #000000; stroke-width: 0.8"/>
      </g>
     </g>
     <g id="text_11">
      <!-- 15 -->
      <g transform="translate(25.357344 107.437657) scale(0.1 -0.1)">
       <use xlink:href="#DejaVuSans-14"/>
       <use xlink:href="#DejaVuSans-18" transform="translate(63.625 0)"/>
      </g>
     </g>
    </g>
    <g id="ytick_5">
     <g id="line2d_11">
      <g>
       <use xlink:href="#mfb4169092f" x="45.082344" y="48.100396" style="stroke: #000000; stroke-width: 0.8"/>
      </g>
     </g>
     <g id="text_12">
      <!-- 20 -->
      <g transform="translate(25.357344 51.899224) scale(0.1 -0.1)">
       <use xlink:href="#DejaVuSans-15"/>
       <use xlink:href="#DejaVuSans-13" transform="translate(63.625 0)"/>
      </g>
     </g>
    </g>
    <g id="text_13">
     <!-- density -->
     <g transform="translate(18.955 172.351641) rotate(-90) scale(0.1 -0.1)">
      <defs>
       <path id="DejaVuSans-47" d="M 2906 2969 
L 2906 4863 
L 3481 4863 
L 3481 0 
L 2906 0 
L 2906 525 
Q 2725 213 2448 61 
Q 2172 -91 1784 -91 
Q 1150 -91 751 415 
Q 353 922 353 1747 
Q 353 2572 751 3078 
Q 1150 3584 1784 3584 
Q 2172 3584 2448 3432 
Q 2725 3281 2906 2969 
z
M 947 1747 
Q 947 1113 1208 752 
Q 1469 391 1925 391 
Q 2381 391 2643 752 
Q 2906 1113 2906 1747 
Q 2906 2381 2643 2742 
Q 2381 3103 1925 3103 
Q 1469 3103 1208 2742 
Q 947 2381 947 1747 
z
" transform="scale(0.015625)"/>
       <path id="DejaVuSans-51" d="M 3513 2113 
L 3513 0 
L 2938 0 
L 2938 2094 
Q 2938 2591 2744 2837 
Q 2550 3084 2163 3084 
Q 1697 3084 1428 2787 
Q 1159 2491 1159 1978 
L 1159 0 
L 581 0 
L 581 3500 
L 1159 3500 
L 1159 2956 
Q 1366 3272 1645 3428 
Q 1925 3584 2291 3584 
Q 2894 3584 3203 3211 
Q 3513 2838 3513 2113 
z
" transform="scale(0.015625)"/>
       <path id="DejaVuSans-56" d="M 2834 3397 
L 2834 2853 
Q 2591 2978 2328 3040 
Q 2066 3103 1784 3103 
Q 1356 3103 1142 2972 
Q 928 2841 928 2578 
Q 928 2378 1081 2264 
Q 1234 2150 1697 2047 
L 1894 2003 
Q 2506 1872 2764 1633 
Q 3022 1394 3022 966 
Q 3022 478 2636 193 
Q 2250 -91 1575 -91 
Q 1294 -91 989 -36 
Q 684 19 347 128 
L 347 722 
Q 666 556 975 473 
Q 1284 391 1588 391 
Q 1994 391 2212 530 
Q 2431 669 2431 922 
Q 2431 1156 2273 1281 
Q 2116 1406 1581 1522 
L 1381 1569 
Q 847 1681 609 1914 
Q 372 2147 372 2553 
Q 372 3047 722 3315 
Q 1072 3584 1716 3584 
Q 2034 3584 2315 3537 
Q 2597 3491 2834 3397 
z
" transform="scale(0.015625)"/>
       <path id="DejaVuSans-4c" d="M 603 3500 
L 1178 3500 
L 1178 0 
L 603 0 
L 603 3500 
z
M 603 4863 
L 1178 4863 
L 1178 4134 
L 603 4134 
L 603 4863 
z
" transform="scale(0.015625)"/>
       <path id="DejaVuSans-5c" d="M 2059 -325 
Q 1816 -950 1584 -1140 
Q 1353 -1331 966 -1331 
L 506 -1331 
L 506 -850 
L 844 -850 
Q 1081 -850 1212 -737 
Q 1344 -625 1503 -206 
L 1606 56 
L 191 3500 
L 800 3500 
L 1894 763 
L 2988 3500 
L 3597 3500 
L 2059 -325 
z
" transform="scale(0.015625)"/>
      </defs>
      <use xlink:href="#DejaVuSans-47"/>
      <use xlink:href="#DejaVuSans-48" transform="translate(63.484375 0)"/>
      <use xlink:href="#DejaVuSans-51" transform="translate(125.015625 0)"/>
      <use xlink:href="#DejaVuSans-56" transform="translate(188.390625 0)"/>
      <use xlink:href="#DejaVuSans-4c" transform="translate(240.484375 0)"/>
      <use xlink:href="#DejaVuSans-57" transform="translate(268.265625 0)"/>
      <use xlink:href="#DejaVuSans-5c" transform="translate(307.46875 0)"/>
     </g>
    </g>
   </g>
   <g id="line2d_12">
    <path d="M 64.972539 257.58702 
L 70.969582 255.010561 
L 76.966626 252.215866 
L 84.962684 248.221302 
L 94.957757 242.956475 
L 114.947903 232.351596 
L 124.942975 227.306926 
L 146.932136 216.410027 
L 152.929179 213.126254 
L 156.927208 210.754368 
L 160.925238 208.193619 
L 164.923267 205.40884 
L 168.921296 202.368003 
L 172.919325 199.043762 
L 176.917354 195.4147 
L 180.915383 191.466188 
L 184.913412 187.190757 
L 188.911441 182.587965 
L 192.90947 177.663794 
L 196.9075 172.429654 
L 200.905529 166.901133 
L 204.903558 161.096665 
L 210.900602 151.916646 
L 216.897645 142.231097 
L 222.894689 132.111451 
L 230.890747 118.077707 
L 242.884834 96.37047 
L 250.880893 82.013123 
L 256.877936 71.703424 
L 260.875966 65.219915 
L 264.873995 59.169688 
L 268.872024 53.66336 
L 272.870053 48.812989 
L 274.869067 46.668089 
L 276.868082 44.727535 
L 278.867097 43.003666 
L 280.866111 41.508022 
L 282.865126 40.251199 
L 284.86414 39.242708 
L 286.863155 38.490851 
L 288.862169 38.002606 
L 290.861184 37.78353 
L 292.860199 37.837673 
L 294.859213 38.167517 
L 296.858228 38.77393 
L 298.857242 39.65614 
L 300.856257 40.81173 
L 302.855271 42.236653 
L 304.854286 43.925269 
L 306.8533 45.870397 
L 308.852315 48.063391 
L 310.85133 50.494226 
L 312.850344 53.151605 
L 314.849359 56.023077 
L 318.847388 62.353519 
L 322.845417 69.368018 
L 326.843446 76.939654 
L 330.841475 84.936993 
L 336.838519 97.445351 
L 350.831621 126.953747 
L 356.828664 138.96233 
L 360.826694 146.586955 
L 364.824723 153.860369 
L 368.822752 160.759642 
L 372.820781 167.275319 
L 376.81881 173.409759 
L 380.816839 179.175264 
L 384.814868 184.592092 
L 388.812897 189.686451 
L 392.810927 194.488527 
L 396.808956 199.030611 
L 402.805999 205.427415 
L 408.803043 211.416256 
L 414.800087 217.085427 
L 420.79713 222.500806 
L 428.793189 229.391366 
L 436.789247 235.920261 
L 442.786291 240.552807 
L 448.783334 244.9182 
L 454.780378 248.972386 
L 460.777422 252.672741 
L 462.776436 253.821264 
L 462.776436 253.821264 
" clip-path="url(#p076a2216cb)" style="fill: none; stroke: #2563eb; stroke-width: 2; stroke-linecap: square"/>
   </g>
   <g id="patch_3">
    <path d="M 45.082344 281.877656 
L 45.082344 26.16 
" style="fill: none; stroke: #000000; stroke-width: 0.8; stroke-linejoin: miter; stroke-linecap: square"/>
   </g>
   <g id="patch_4">
    <path d="M 482.666631 281.877656 
L 482.666631 26.16 
" style="fill: none; stroke: #000000; stroke-width: 0.8; stroke-linejoin: miter; stroke-linecap: square"/>
   </g>
   <g id="patch_5">
    <path d="M 45.082344 281.877656 
L 482.666631 281.877656 
" style="fill: none; stroke: #000000; stroke-width: 0.8; stroke-linejoin: miter; stroke-linecap: square"/>
   </g>
   <g id="patch_6">
    <path d="M 45.082344 26.16 
L 482.666631 26.16 
" style="fill: none; stroke: #000000; stroke-width: 0.8; stroke-linejoin: miter; stroke-linecap: square"/>
   </g>
   <g id="text_14">
    <!-- Theta distribution for QwenCoder -->
    <g transform="translate(163.571362 20.16) scale(0.12 -0.12)">
     <defs>
      <path id="DejaVuSans-37" d="M -19 4666 
L 3928 4666 
L 3928 4134 
L 2272 4134 
L 2272 0 
L 1638 0 
L 1638 4134 
L -19 4134 
L -19 4666 
z
" transform="scale(0.015625)"/>
      <path id="DejaVuSans-3" transform="scale(0.015625)"/>
      <path id="DejaVuSans-55" d="M 2631 2963 
Q 2534 3019 2420 3045 
Q 2306 3072 2169 3072 
Q 1681 3072 1420 2755 
Q 1159 2438 1159 1844 
L 1159 0 
L 581 0 
L 581 3500 
L 1159 3500 
L 1159 2956 
Q 1341 3275 1631 3429 
Q 1922 3584 2338 3584 
Q 2397 3584 2469 3576 
Q 2541 3569 2628 3553 
L 2631 2963 
z
" transform="scale(0.015625)"/>
      <path id="DejaVuSans-45" d="M 3116 1747 
Q 3116 2381 2855 2742 
Q 2594 3103 2138 3103 
Q 1681 3103 1420 2742 
Q 1159 2381 1159 1747 
Q 1159 1113 1420 752 
Q 1681 391 2138 391 
Q 2594 391 2855 752 
Q 3116 1113 3116 1747 
z
M 1159 2969 
Q 1341 3281 1617 3432 
Q 1894 3584 2278 3584 
Q 2916 3584 3314 3078 
Q 3713 2572 3713 1747 
Q 3713 922 3314 415 
Q 2916 -91 2278 -91 
Q 1894 -91 1617 61 
Q 1341 213 1159 525 
L 1159 0 
L 581 0 
L 581 4863 
L 1159 4863 
L 1159 2969 
z
" transform="scale(0.015625)"/>
      <path id="DejaVuSans-58" d="M 544 1381 
L 544 3500 
L 1119 3500 
L 1119 1403 
Q 1119 906 1312 657 
Q 1506 409 1894 409 
Q 2359 409 2629 706 
Q 2900 1003 2900 1516 
L 2900 3500 
L 3475 3500 
L 3475 0 
L 2900 0 
L 2900 538 
Q 2691 219 2414 64 
Q 2138 -91 1772 -91 
Q 1169 -91 856 284 
Q 544 659 544 1381 
z
M 1991 3584 
L 1991 3584 
z
" transform="scale(0.015625)"/>
      <path id="DejaVuSans-52" d="M 1959 3097 
Q 1497 3097 1228 2736 
Q 959 2375 959 1747 
Q 959 1119 1226 758 
Q 1494 397 1959 397 
Q 2419 397 2687 759 
Q 2956 1122 2956 1747 
Q 2956 2369 2687 2733 
Q 2419 3097 1959 3097 
z
M 1959 3584 
Q 2709 3584 3137 3096 
Q 3566 2609 3566 1747 
Q 3566 888 3137 398 
Q 2709 -91 1959 -91 
Q 1206 -91 779 398 
Q 353 888 353 1747 
Q 353 2609 779 3096 
Q 1206 3584 1959 3584 
z
" transform="scale(0.015625)"/>
      <path id="DejaVuSans-49" d="M 2375 4863 
L 2375 4384 
L 1825 4384 
Q 1516 4384 1395 4259 
Q 1275 4134 1275 3809 
L 1275 3500 
L 2222 3500 
L 2222 3053 
L 1275 3053 
L 1275 0 
L 697 0 
L 697 3053 
L 147 3053 
L 147 3500 
L 697 3500 
L 697 3744 
Q 697 4328 969 4595 
Q 1241 4863 1831 4863 
L 2375 4863 
z
" transform="scale(0.015625)"/>
      <path id="DejaVuSans-34" d="M 2522 4238 
Q 1834 4238 1429 3725 
Q 1025 3213 1025 2328 
Q 1025 1447 1429 934 
Q 1834 422 2522 422 
Q 3209 422 3611 934 
Q 4013 1447 4013 2328 
Q 4013 3213 3611 3725 
Q 3209 4238 2522 4238 
z
M 3406 84 
L 4238 -825 
L 3475 -825 
L 2784 -78 
Q 2681 -84 2626 -87 
Q 2572 -91 2522 -91 
Q 1538 -91 948 567 
Q 359 1225 359 2328 
Q 359 3434 948 4092 
Q 1538 4750 2522 4750 
Q 3503 4750 4090 4092 
Q 4678 3434 4678 2328 
Q 4678 1516 4351 937 
Q 4025 359 3406 84 
z
" transform="scale(0.015625)"/>
      <path id="DejaVuSans-5a" d="M 269 3500 
L 844 3500 
L 1563 769 
L 2278 3500 
L 2956 3500 
L 3675 769 
L 4391 3500 
L 4966 3500 
L 4050 0 
L 3372 0 
L 2619 2869 
L 1863 0 
L 1184 0 
L 269 3500 
z
" transform="scale(0.015625)"/>
      <path id="DejaVuSans-26" d="M 4122 4306 
L 4122 3641 
Q 3803 3938 3442 4084 
Q 3081 4231 2675 4231 
Q 1875 4231 1450 3742 
Q 1025 3253 1025 2328 
Q 1025 1406 1450 917 
Q 1875 428 2675 428 
Q 3081 428 3442 575 
Q 3803 722 4122 1019 
L 4122 359 
Q 3791 134 3420 21 
Q 3050 -91 2638 -91 
Q 1578 -91 968 557 
Q 359 1206 359 2328 
Q 359 3453 968 4101 
Q 1578 4750 2638 4750 
Q 3056 4750 3426 4639 
Q 3797 4528 4122 4306 
z
" transform="scale(0.015625)"/>
     </defs>
     <use xlink:href="#DejaVuSans-37"/>
     <use xlink:href="#DejaVuSans-4b" transform="translate(61.078125 0)"/>
     <use xlink:href="#DejaVuSans-48" transform="translate(124.453125 0)"/>
     <use xlink:href="#DejaVuSans-57" transform="translate(185.984375 0)"/>
     <use xlink:href="#DejaVuSans-44" transform="translate(225.1875 0)"/>
     <use xlink:href="#DejaVuSans-3" transform="translate(286.46875 0)"/>
     <use xlink:href="#DejaVuSans-47" transform="translate(318.25 0)"/>
     <use xlink:href="#DejaVuSans-4c" transform="translate(381.734375 0)"/>
     <use xlink:href="#DejaVuSans-56" transform="translate(409.515625 0)"/>
     <use xlink:href="#DejaVuSans-57" transform="translate(461.609375 0)"/>
     <use xlink:href="#DejaVuSans-55" transform="translate(500.8125 0)"/>
     <use xlink:href="#DejaVuSans-4c" transform="translate(541.921875 0)"/>
     <use xlink:href="#DejaVuSans-45" transform="translate(569.703125 0)"/>
     <use xlink:href="#DejaVuSans-58" transform="translate(633.1875 0)"/>
     <use xlink:href="#DejaVuSans-57" transform="translate(696.5625 0)"/>
     <use xlink:href="#DejaVuSans-4c" transform="translate(735.765625 0)"/>
     <use xlink:href="#DejaVuSans-52" transform="translate(763.546875 0)"/>
     <use xlink:href="#DejaVuSans-51" transform="translate(824.734375 0)"/>
     <use xlink:href="#DejaVuSans-3" transform="translate(888.109375 0)"/>
     <use xlink:href="#DejaVuSans-49" transform="translate(919.890625 0)"/>
     <use xlink:href="#DejaVuSans-52" transform="translate(955.09375 0)"/>
     <use xlink:href="#DejaVuSans-55" transform="translate(1016.28125 0)"/>
     <use xlink:href="#DejaVuSans-3" transform="translate(1057.390625 0)"/>
     <use xlink:href="#DejaVuSans-34" transform="translate(1089.171875 0)"/>
     <use xlink:href="#DejaVuSans-5a" transform="translate(1167.890625 0)"/>
     <use xlink:href="#DejaVuSans-48" transform="translate(1249.671875 0)"/>
     <use xlink:href="#DejaVuSans-51" transform="translate(1311.203125 0)"/>
     <use xlink:href="#DejaVuSans-26" transform="translate(1374.578125 0)"/>
     <use xlink:href="#DejaVuSans-52" transform="translate(1444.40625 0)"/>
     <use xlink:href="#DejaVuSans-47" transform="translate(1505.59375 0)"/>
     <use xlink:href="#DejaVuSans-48" transform="translate(1569.078125 0)"/>
     <use xlink:href="#DejaVuSans-55" transform="translate(1630.609375 0)"/>
    </g>
   </g>
  </g>
 </g>
 <defs>
  <clipPath id="p076a2216cb">
   <rect x="45.082344" y="26.16" width="437.584287" height="255.717656"/>
  </clipPath>
 </defs>
</svg>
